<?xml version="1.0" encoding="utf-8"?>
<!-- Generator: Adobe Illustrator 23.0.3, SVG Export Plug-In . SVG Version: 6.00 Build 0)  -->
<svg version="1.2" baseProfile="tiny" id="Layer_1" xmlns="http://www.w3.org/2000/svg" xmlns:xlink="http://www.w3.org/1999/xlink"
	 x="0px" y="0px" viewBox="0 0 1280 1280" xml:space="preserve">
<path fill="#0B1C34" d="M792.31,880.22c5.25-1.56,10.94,0.06,14.58,4.15c3.55,4.11,4,10.07,1.11,14.67
	c-3.14,5.17-7.38,10.43-12.55,17.71c-7.21,7.15-15.3,13.36-24.08,18.45c-11.59,6.51-24,11.45-36.9,14.67
	c-16.7,4.45-33.93,6.56-51.21,6.27c-24.08,0.91-47.93-4.87-68.92-16.7c-16-8.89-29.34-21.88-38.66-37.64
	c-2.12-3.14-4.24-5.26-7.38-4.15c-3.19,0.3-6.15,1.78-8.3,4.15c-4.15,4.15-8.4,7.29-12.55,11.44c-9.15,7.49-18.93,14.15-29.25,19.93
	c-14.59,7.96-30.08,14.15-46.13,18.45c-20.04,5.72-40.79,8.55-61.63,8.4c-34.23,1.11-68.35-4.57-100.38-16.7
	c-24.47-9.93-46.8-24.46-65.78-42.81c-16.16-17.2-28.71-37.47-36.9-59.6c-5.44-22.6-8.53-45.69-9.23-68.92
	c-0.74-33.37,9.54-66.06,29.25-93c20.18-26.23,46.82-46.76,77.32-59.6c17.49-6.4,35.57-11.07,53.97-13.93l55.36-9.23
	c17.81-3.14,36.9-7.29,53.33-11.53c17.81-5.04,34.74-12.79,50.19-22.97c16.07-10.07,28.33-25.2,34.87-42.99
	c6.27-17.78,9.39-36.51,9.23-55.36c-0.1-14.08-1.84-28.11-5.17-41.79c-3.55-12.19-8.84-23.81-15.68-34.51
	c-6.39-9.2-14.59-17.02-24.08-22.97c-8.77-5.48-18.91-8.38-29.25-8.4c-15.32-1.32-30.49,3.87-41.79,14.3
	c-9.36,10.25-16.46,22.35-20.85,35.52c-5.26,14.58-10.52,28.23-14.67,42.81c-3.94,14.3-11.06,27.52-20.85,38.66
	c-8.86,8.53-19.61,14.85-31.37,18.45c-11.89,4.04-24.35,6.16-36.9,6.27c-11.11,0.14-22.13-1.99-32.38-6.27
	c-8.8-3.64-16.84-8.9-23.71-15.5c-6.43-6.97-11.38-15.16-14.58-24.08c-3.35-9.39-5.13-19.28-5.26-29.25
	c-0.01-14.58,3.57-28.93,10.43-41.79c8.33-15.42,20.58-28.38,35.52-37.55c21.24-13.02,44.6-22.23,69.01-27.22
	c35.89-7.93,72.58-11.58,109.33-10.89c42.59-0.62,85.07,4.28,126.4,14.58c31.31,8.59,60.52,23.54,85.8,43.92
	c21.89,19.13,38.45,43.6,48.07,71.04c10.62,31.26,15.59,64.15,14.67,97.15c0,43.92-1.01,84.7-4.15,122.25
	c-2.12,33.49-4.24,66.89-5.26,101.49c-1.55,24.03-0.84,48.16,2.12,72.06c3.14,18.45,8.3,30.26,18.45,35.52
	c5.27,2.26,10.97,3.33,16.7,3.14C778.81,881.91,785.72,881.87,792.31,880.22z M561.66,580.37c0.32-2.27-0.99-4.46-3.14-5.26
	c-2.03-1.01-4.15,0-6.27,2.12c-3.14,4.15-7.29,8.4-9.23,11.53c-1.94,3.14-7.29,8.3-11.44,12.46c-7.91,9.15-16.65,17.55-26.11,25.1
	l-27.22,24.08c-8.3,7.29-17.71,14.58-26.11,21.96c-8.51,7.11-16.52,14.78-23.99,22.97c-11.05,13.07-19.87,27.88-26.11,43.82
	c-5.59,16.49-8.43,33.79-8.4,51.21c0.19,12.47,1.95,24.87,5.26,36.9c3.46,11.76,9.13,22.75,16.7,32.38
	c7.44,9.81,17.12,17.69,28.23,22.97c12.56,6.49,26.56,9.66,40.69,9.23c25.34,0.78,49.05-12.49,61.63-34.51
	c5.17-8.81,9.05-18.32,11.53-28.23c1.88-7.52,2.94-15.22,3.14-22.97V580.37H561.66z M1090.23,858.26
	c-0.05,13.32-2.88,26.49-8.3,38.66c-5.34,12.01-12.77,22.98-21.96,32.38c-9.23,9.4-20.24,16.86-32.38,21.96
	c-12.61,5.04-26.1,7.52-39.67,7.29c-13.62,0.33-27.15-2.15-39.76-7.29c-11.64-4.98-22.27-12.05-31.37-20.85
	c-8.66-9.21-15.71-19.82-20.85-31.37c-5.13-12.23-7.61-25.4-7.29-38.66c0.17-13.31,2.99-26.45,8.3-38.66
	c5.34-12.01,12.77-22.98,21.96-32.38c9.23-9.4,20.24-16.86,32.38-21.96c12.57-5.4,26.08-8.25,39.76-8.4
	c13.59-0.29,27.1,2.22,39.67,7.38c11.66,4.95,22.29,12.02,31.37,20.85c8.46,9.37,15.48,19.94,20.85,31.37
	C1087.8,831.25,1090.27,844.7,1090.23,858.26z"/>
</svg>
